<mxfile host="Electron" modified="2024-05-03T14:10:48.751Z" agent="Mozilla/5.0 (Windows NT 10.0; Win64; x64) AppleWebKit/537.36 (KHTML, like Gecko) draw.io/24.2.5 Chrome/120.0.6099.109 Electron/28.1.0 Safari/537.36" etag="ZbhoXly_Akx0Hpy2g50Z" version="24.2.5" type="device">
  <diagram name="Side-1" id="sE-RzV_Q9aC-Ta7wH5zq">
    <mxGraphModel dx="1891" dy="1187" grid="1" gridSize="10" guides="1" tooltips="1" connect="1" arrows="1" fold="1" page="1" pageScale="1" pageWidth="827" pageHeight="1169" math="0" shadow="0">
      <root>
        <mxCell id="0" />
        <mxCell id="1" parent="0" />
        <mxCell id="lPya9JQnrBDjppxJmkVH-1" value="Packet Type" style="rounded=0;whiteSpace=wrap;html=1;" vertex="1" parent="1">
          <mxGeometry x="200" y="200" width="80" height="40" as="geometry" />
        </mxCell>
        <mxCell id="lPya9JQnrBDjppxJmkVH-2" value="" style="endArrow=classic;startArrow=classic;html=1;rounded=0;" edge="1" parent="1">
          <mxGeometry width="50" height="50" relative="1" as="geometry">
            <mxPoint x="200" y="250" as="sourcePoint" />
            <mxPoint x="280" y="250" as="targetPoint" />
          </mxGeometry>
        </mxCell>
        <mxCell id="lPya9JQnrBDjppxJmkVH-3" value="1 byte" style="text;html=1;align=center;verticalAlign=middle;resizable=0;points=[];autosize=1;strokeColor=none;fillColor=none;" vertex="1" parent="1">
          <mxGeometry x="210" y="248" width="60" height="30" as="geometry" />
        </mxCell>
        <mxCell id="lPya9JQnrBDjppxJmkVH-4" value="Packet Amount" style="rounded=0;whiteSpace=wrap;html=1;" vertex="1" parent="1">
          <mxGeometry x="280" y="200" width="160" height="40" as="geometry" />
        </mxCell>
        <mxCell id="lPya9JQnrBDjppxJmkVH-5" value="Filename (variable size)" style="rounded=0;whiteSpace=wrap;html=1;gradientColor=none;fillColor=default;gradientDirection=east;dashed=1;" vertex="1" parent="1">
          <mxGeometry x="440" y="200" width="280" height="40" as="geometry" />
        </mxCell>
        <mxCell id="lPya9JQnrBDjppxJmkVH-6" value="Metadata packet" style="text;html=1;align=center;verticalAlign=middle;resizable=0;points=[];autosize=1;strokeColor=none;fillColor=none;" vertex="1" parent="1">
          <mxGeometry x="190" y="158" width="110" height="30" as="geometry" />
        </mxCell>
        <mxCell id="lPya9JQnrBDjppxJmkVH-7" value="Content packet" style="text;html=1;align=center;verticalAlign=middle;resizable=0;points=[];autosize=1;strokeColor=none;fillColor=none;" vertex="1" parent="1">
          <mxGeometry x="190" y="278" width="100" height="30" as="geometry" />
        </mxCell>
        <mxCell id="lPya9JQnrBDjppxJmkVH-8" value="Packet Type" style="rounded=0;whiteSpace=wrap;html=1;" vertex="1" parent="1">
          <mxGeometry x="200" y="318" width="80" height="40" as="geometry" />
        </mxCell>
        <mxCell id="lPya9JQnrBDjppxJmkVH-9" value="Packet Number" style="rounded=0;whiteSpace=wrap;html=1;" vertex="1" parent="1">
          <mxGeometry x="280" y="318" width="160" height="40" as="geometry" />
        </mxCell>
        <mxCell id="lPya9JQnrBDjppxJmkVH-10" value="Content (variable size)" style="rounded=0;whiteSpace=wrap;html=1;gradientColor=none;fillColor=default;gradientDirection=east;dashed=1;" vertex="1" parent="1">
          <mxGeometry x="440" y="318" width="280" height="40" as="geometry" />
        </mxCell>
        <mxCell id="lPya9JQnrBDjppxJmkVH-11" value="Content ACK packet" style="text;html=1;align=center;verticalAlign=middle;resizable=0;points=[];autosize=1;strokeColor=none;fillColor=none;" vertex="1" parent="1">
          <mxGeometry x="190" y="378" width="130" height="30" as="geometry" />
        </mxCell>
        <mxCell id="lPya9JQnrBDjppxJmkVH-12" value="Packet Type" style="rounded=0;whiteSpace=wrap;html=1;" vertex="1" parent="1">
          <mxGeometry x="200" y="418" width="80" height="40" as="geometry" />
        </mxCell>
        <mxCell id="lPya9JQnrBDjppxJmkVH-13" value="Packet Number" style="rounded=0;whiteSpace=wrap;html=1;" vertex="1" parent="1">
          <mxGeometry x="280" y="418" width="160" height="40" as="geometry" />
        </mxCell>
        <mxCell id="lPya9JQnrBDjppxJmkVH-14" value="EOF, EOF ACK, metadata ACK" style="text;html=1;align=center;verticalAlign=middle;resizable=0;points=[];autosize=1;strokeColor=none;fillColor=none;" vertex="1" parent="1">
          <mxGeometry x="190" y="480" width="190" height="30" as="geometry" />
        </mxCell>
        <mxCell id="lPya9JQnrBDjppxJmkVH-15" value="Packet Type" style="rounded=0;whiteSpace=wrap;html=1;" vertex="1" parent="1">
          <mxGeometry x="200" y="520" width="80" height="40" as="geometry" />
        </mxCell>
      </root>
    </mxGraphModel>
  </diagram>
</mxfile>
